<?xml version="1.0" encoding="UTF-8"?>
<svg xmlns="http://www.w3.org/2000/svg" xmlns:xlink="http://www.w3.org/1999/xlink" width="150px" height="150px" viewBox="0 0 150 150" version="1.1">
<g id="surface1">
<path style=" stroke:none;fill-rule:nonzero;fill:rgb(0%,0%,0%);fill-opacity:1;" d="M 61.757812 5.125 C 58.507812 5.945312 55.578125 7.910156 54.171875 10.136719 L 53.554688 11.132812 L 47.785156 11.132812 C 40.929688 11.132812 40.722656 11.191406 40.722656 13.503906 L 40.722656 14.941406 L 32.578125 14.941406 C 26.222656 14.941406 24.054688 15.027344 22.707031 15.378906 C 16.875 16.875 12.335938 21.855469 11.425781 27.683594 C 11.222656 29.089844 11.132812 45.644531 11.191406 81.445312 L 11.28125 133.152344 L 12.070312 135.175781 C 13.535156 138.953125 15.910156 141.707031 19.277344 143.496094 C 22.824219 145.398438 20.65625 145.3125 65.539062 145.3125 C 94.015625 145.3125 106.789062 145.222656 107.871094 144.988281 C 113.234375 143.875 117.773438 139.628906 119.355469 134.207031 C 119.765625 132.859375 119.824219 130.664062 119.824219 119.941406 L 119.824219 107.3125 L 122.109375 106.492188 C 133.066406 102.65625 140.15625 91.289062 138.574219 80.007812 C 137.257812 70.488281 130.839844 62.636719 121.875 59.617188 L 119.972656 58.972656 L 119.824219 42.742188 C 119.648438 25.105469 119.765625 26.191406 117.949219 22.585938 C 116.925781 20.59375 114.257812 17.957031 112.03125 16.785156 C 108.867188 15.117188 107.695312 14.941406 98.671875 14.941406 L 90.527344 14.941406 L 90.527344 13.621094 C 90.527344 12.683594 90.351562 12.128906 89.941406 11.71875 C 89.386719 11.160156 88.976562 11.132812 83.410156 11.132812 L 77.433594 11.132812 L 77.109375 10.429688 C 76.203125 8.4375 73.886719 6.648438 70.722656 5.535156 C 68.4375 4.746094 64.042969 4.539062 61.757812 5.125 Z M 70.636719 9.578125 C 72.65625 10.515625 73.917969 11.777344 74.269531 13.269531 C 74.679688 14.824219 75.207031 14.941406 81.210938 14.941406 L 86.71875 14.941406 L 86.71875 26.953125 L 65.566406 26.894531 L 44.386719 26.804688 L 44.296875 20.859375 L 44.238281 14.941406 L 49.804688 14.941406 C 52.882812 14.941406 55.636719 14.824219 55.929688 14.648438 C 56.222656 14.5 56.691406 13.796875 56.953125 13.066406 C 58.097656 10.105469 61.496094 8.4375 66.066406 8.582031 C 68.292969 8.640625 68.996094 8.816406 70.636719 9.578125 Z M 40.722656 20.917969 L 40.722656 23.113281 L 32.609375 23.203125 C 24.875 23.289062 24.40625 23.320312 23.261719 23.933594 C 21.886719 24.667969 20.597656 26.074219 20.011719 27.449219 C 19.6875 28.242188 19.628906 37.410156 19.628906 80.183594 L 19.628906 131.953125 L 20.246094 133.210938 C 20.566406 133.914062 21.328125 134.882812 21.914062 135.351562 C 24.113281 137.167969 22.648438 137.109375 59.269531 137.109375 L 92.636719 137.109375 L 94.335938 135.410156 C 95.304688 134.5 99.550781 130.046875 103.859375 125.535156 L 111.621094 117.363281 L 111.621094 107.8125 L 116.308594 107.8125 L 116.308594 119.003906 C 116.308594 125.183594 116.191406 131.015625 116.015625 131.953125 C 115.429688 135.644531 113 138.808594 109.570312 140.449219 L 107.667969 141.355469 L 23.292969 141.355469 L 21.652344 140.535156 C 19.074219 139.277344 17.460938 137.664062 16.203125 135.117188 L 15.089844 132.890625 L 15 80.886719 C 14.914062 23.289062 14.796875 26.894531 16.847656 23.847656 C 17.8125 22.351562 19.660156 20.652344 21.09375 19.921875 C 23 18.894531 24.199219 18.777344 32.460938 18.777344 L 40.722656 18.75 Z M 109.660156 19.714844 C 113 21.386719 115.429688 24.609375 116.015625 28.300781 C 116.191406 29.238281 116.308594 36.386719 116.308594 44.148438 L 116.308594 58.300781 L 111.652344 58.300781 L 111.5625 43.125 L 111.476562 27.917969 L 110.597656 26.484375 C 110.039062 25.605469 109.160156 24.726562 108.28125 24.167969 L 106.847656 23.289062 L 98.671875 23.203125 L 90.527344 23.113281 L 90.527344 18.71875 L 99.257812 18.808594 L 107.960938 18.894531 Z M 40.722656 28.242188 C 40.722656 29.765625 41.191406 30.378906 42.570312 30.613281 C 43.097656 30.703125 53.820312 30.761719 66.386719 30.703125 C 88.449219 30.613281 89.328125 30.585938 89.914062 30.058594 C 90.351562 29.648438 90.527344 29.148438 90.527344 28.210938 L 90.527344 26.953125 L 98 26.953125 C 106.144531 26.953125 106.789062 27.070312 107.460938 28.5625 C 107.726562 29.121094 107.8125 33.28125 107.8125 44.179688 L 107.8125 59.03125 L 105.734375 59.765625 C 101.046875 61.347656 95.949219 65.390625 93.253906 69.636719 L 91.90625 71.777344 L 62.050781 71.777344 C 32.609375 71.777344 32.226562 71.777344 31.640625 72.363281 C 30.851562 73.152344 30.910156 74.003906 31.789062 74.851562 L 32.492188 75.585938 L 61.378906 75.585938 C 77.257812 75.585938 90.234375 75.613281 90.234375 75.671875 C 90.234375 75.703125 90.03125 76.667969 89.796875 77.78125 C 89.5625 78.925781 89.355469 81.238281 89.355469 82.96875 L 89.355469 86.132812 L 68.613281 86.132812 C 48.546875 86.132812 47.84375 86.160156 47.34375 86.6875 C 46.582031 87.507812 46.816406 89.089844 47.753906 89.558594 C 48.3125 89.851562 53.175781 89.941406 69.316406 89.941406 L 90.117188 89.941406 L 90.9375 92.019531 C 91.933594 94.539062 93.3125 96.941406 94.953125 98.875 L 96.152344 100.339844 L 63.984375 100.488281 L 31.816406 100.632812 L 31.378906 101.425781 C 30.820312 102.390625 31.261719 103.59375 32.316406 103.972656 C 32.695312 104.121094 47.34375 104.179688 66.59375 104.089844 L 100.195312 103.914062 L 103.097656 105.261719 C 104.679688 106.023438 106.40625 106.726562 106.90625 106.816406 L 107.8125 106.992188 L 107.8125 114.84375 L 101.601562 114.84375 C 94.484375 114.84375 93.75 115.019531 91.964844 117.15625 C 90.382812 118.972656 90.234375 119.882812 90.234375 126.972656 L 90.234375 133.300781 L 58.007812 133.300781 C 22.238281 133.300781 24.40625 133.417969 23.554688 131.394531 C 23.203125 130.546875 23.144531 122.898438 23.144531 80.066406 C 23.144531 32.722656 23.175781 29.675781 23.671875 28.710938 C 24.492188 27.011719 24.84375 26.953125 33.195312 26.953125 L 40.722656 26.953125 Z M 118.507812 62.546875 C 121.027344 63.074219 125.304688 65.15625 127.414062 66.882812 C 134.738281 72.976562 137.082031 83.347656 133.007812 91.902344 C 130.8125 96.53125 127.589844 99.84375 123.195312 101.953125 C 120.03125 103.476562 117.628906 104.003906 113.996094 104.003906 C 102.863281 104.003906 94.074219 95.859375 93.019531 84.519531 C 92.753906 82 93.429688 77.8125 94.484375 75.234375 C 96.945312 69.140625 102.628906 64.246094 109.042969 62.664062 C 111.679688 62.019531 115.753906 61.960938 118.507812 62.546875 Z M 105.117188 118.621094 C 105.089844 118.769531 102.570312 121.464844 99.550781 124.628906 L 94.042969 130.339844 L 94.042969 125.449219 C 94.042969 120.027344 94.191406 119.53125 95.917969 118.769531 C 96.972656 118.328125 105.292969 118.183594 105.117188 118.621094 Z M 105.117188 118.621094 "/>
<path style=" stroke:none;fill-rule:nonzero;fill:rgb(0%,0%,0%);fill-opacity:1;" d="M 68.144531 35.507812 C 67.53125 36.09375 66.886719 38.203125 63.75 49.980469 C 61.730469 57.566406 60.058594 63.984375 60.058594 64.246094 C 60.058594 64.746094 61.378906 65.917969 61.964844 65.917969 C 62.167969 65.917969 62.636719 65.683594 62.988281 65.390625 C 63.515625 64.980469 64.335938 62.253906 67.382812 50.859375 C 71.398438 35.886719 71.425781 35.742188 69.875 35.15625 C 68.878906 34.773438 68.996094 34.746094 68.144531 35.507812 Z M 68.144531 35.507812 "/>
<path style=" stroke:none;fill-rule:nonzero;fill:rgb(0%,0%,0%);fill-opacity:1;" d="M 55.519531 39.84375 C 55.195312 39.960938 52.851562 42.1875 50.332031 44.734375 C 46.496094 48.601562 45.703125 49.539062 45.703125 50.242188 C 45.703125 50.976562 46.523438 51.914062 50.65625 56.042969 C 55.285156 60.671875 55.664062 60.996094 56.457031 60.820312 C 57.453125 60.554688 58.007812 59.910156 58.007812 58.886719 C 58.007812 58.328125 57.070312 57.214844 54.054688 54.199219 L 50.097656 50.242188 L 54.054688 46.289062 C 57.070312 43.269531 58.007812 42.15625 58.007812 41.570312 C 58.007812 40.195312 56.75 39.316406 55.519531 39.84375 Z M 55.519531 39.84375 "/>
<path style=" stroke:none;fill-rule:nonzero;fill:rgb(0%,0%,0%);fill-opacity:1;" d="M 74.210938 40.136719 C 73.359375 40.488281 72.863281 41.453125 73.125 42.273438 C 73.214844 42.625 75 44.648438 77.082031 46.726562 L 80.859375 50.566406 L 77.316406 54.050781 C 75.382812 55.984375 73.59375 57.949219 73.359375 58.386719 C 72.832031 59.382812 73.039062 60.203125 74.003906 60.820312 C 74.589844 61.230469 74.855469 61.230469 75.558594 60.9375 C 76.90625 60.378906 85.546875 51.472656 85.546875 50.652344 C 85.546875 50.15625 84.171875 48.574219 80.480469 44.910156 C 77.695312 42.128906 75.292969 39.84375 75.148438 39.871094 C 74.972656 39.871094 74.5625 39.988281 74.210938 40.136719 Z M 74.210938 40.136719 "/>
<path style=" stroke:none;fill-rule:nonzero;fill:rgb(0%,0%,0%);fill-opacity:1;" d="M 31.640625 86.71875 C 30.851562 87.507812 30.910156 88.359375 31.789062 89.207031 C 32.460938 89.910156 32.609375 89.941406 37.003906 89.941406 C 41.132812 89.941406 41.601562 89.882812 42.304688 89.324219 C 43.15625 88.652344 43.273438 87.742188 42.597656 86.777344 C 42.160156 86.160156 41.984375 86.132812 37.179688 86.132812 C 32.609375 86.132812 32.167969 86.191406 31.640625 86.71875 Z M 31.640625 86.71875 "/>
<path style=" stroke:none;fill-rule:nonzero;fill:rgb(0%,0%,0%);fill-opacity:1;" d="M 31.523438 115.488281 C 31.261719 115.839844 31.054688 116.335938 31.054688 116.601562 C 31.054688 116.863281 31.261719 117.363281 31.523438 117.714844 L 31.964844 118.359375 L 55.195312 118.359375 C 77.316406 118.359375 78.457031 118.328125 78.898438 117.832031 C 79.542969 117.128906 79.511719 115.925781 78.867188 115.339844 C 78.371094 114.871094 76.289062 114.84375 55.136719 114.84375 L 31.964844 114.84375 Z M 31.523438 115.488281 "/>
<path style=" stroke:none;fill-rule:nonzero;fill:rgb(0%,0%,0%);fill-opacity:1;" d="M 122.578125 75.378906 C 122.285156 75.554688 119.648438 78.132812 116.71875 81.121094 L 111.417969 86.570312 L 108.515625 83.90625 C 106.933594 82.441406 105.351562 81.152344 105 81.035156 C 104.121094 80.769531 102.832031 81.855469 102.832031 82.851562 C 102.832031 83.464844 103.566406 84.34375 106.289062 86.953125 C 109.953125 90.46875 111.035156 91.257812 111.914062 90.964844 C 112.207031 90.878906 115.3125 87.890625 118.769531 84.34375 C 125.1875 77.78125 125.625 77.167969 124.863281 75.964844 C 124.484375 75.351562 123.222656 75.027344 122.578125 75.378906 Z M 122.578125 75.378906 "/>
</g>
</svg>
