<?xml version="1.0" encoding="UTF-8"?>
<svg xmlns="http://www.w3.org/2000/svg" xmlns:xlink="http://www.w3.org/1999/xlink" width="150px" height="150px" viewBox="0 0 150 150" version="1.1">
<g id="surface1">
<path style=" stroke:none;fill-rule:nonzero;fill:rgb(0%,0%,0%);fill-opacity:1;" d="M 4.394531 75 L 4.394531 150 L 94.980469 150 L 92.902344 147.742188 C 90.351562 145.046875 87.363281 140.625 86.164062 137.839844 L 85.3125 135.789062 L 52.179688 135.703125 L 19.042969 135.644531 L 19.042969 126.855469 L 50.976562 126.796875 L 82.941406 126.707031 L 83.027344 122.753906 C 83.085938 120.585938 83.234375 118.09375 83.351562 117.246094 L 83.585938 115.722656 L 19.042969 115.722656 L 19.042969 106.933594 L 86.953125 106.933594 L 87.304688 106.054688 C 88.417969 103.359375 92.609375 98.289062 95.949219 95.59375 C 101.164062 91.375 106.230469 89.121094 113.613281 87.714844 L 114.257812 87.597656 L 114.257812 29.589844 L 84.667969 29.589844 L 84.667969 0 L 4.394531 0 Z M 38.964844 26.074219 L 38.964844 30.46875 L 19.042969 30.46875 L 19.042969 21.679688 L 38.964844 21.679688 Z M 64.277344 45.117188 C 66.503906 45.585938 68.378906 46.023438 68.4375 46.082031 C 68.554688 46.171875 58.859375 92.898438 58.710938 93.132812 C 58.652344 93.164062 56.75 92.839844 54.433594 92.371094 C 50.363281 91.523438 50.246094 91.492188 50.332031 90.789062 C 50.421875 90.027344 59.707031 45.203125 59.914062 44.589844 C 60.058594 44.148438 59.503906 44.089844 64.277344 45.117188 Z M 41.808594 58.359375 L 44.824219 61.375 L 41.164062 65.039062 L 37.5 68.699219 L 44.824219 76.023438 L 41.835938 79.011719 C 40.167969 80.683594 38.703125 82.03125 38.527344 82.03125 C 38.351562 82.03125 35.273438 79.070312 31.640625 75.4375 L 25.050781 68.847656 L 31.789062 62.109375 C 35.480469 58.386719 38.585938 55.371094 38.671875 55.371094 C 38.730469 55.371094 40.167969 56.71875 41.808594 58.359375 Z M 86.867188 62.109375 L 93.605469 68.847656 L 87.011719 75.4375 C 83.378906 79.070312 80.304688 82.03125 80.128906 82.03125 C 79.980469 82.03125 78.488281 80.683594 76.847656 79.042969 L 73.828125 76.023438 L 77.492188 72.363281 L 81.152344 68.699219 L 73.828125 61.375 L 76.816406 58.386719 C 78.488281 56.71875 79.894531 55.371094 79.980469 55.371094 C 80.070312 55.371094 83.175781 58.386719 86.867188 62.109375 Z M 86.867188 62.109375 "/>
<path style=" stroke:none;fill-rule:nonzero;fill:rgb(0%,0%,0%);fill-opacity:1;" d="M 93.457031 12.15625 L 93.457031 20.800781 L 110.890625 20.800781 L 102.246094 12.15625 C 97.5 7.410156 93.574219 3.515625 93.546875 3.515625 C 93.488281 3.515625 93.457031 7.410156 93.457031 12.15625 Z M 93.457031 12.15625 "/>
<path style=" stroke:none;fill-rule:nonzero;fill:rgb(0%,0%,0%);fill-opacity:1;" d="M 115.078125 96.386719 C 110.949219 97.058594 106.613281 98.699219 103.507812 100.808594 C 101.484375 102.1875 98.292969 105.320312 96.796875 107.402344 C 95.097656 109.746094 93.3125 113.582031 92.550781 116.453125 C 91.699219 119.558594 91.613281 125.976562 92.375 129.023438 C 95.890625 143.085938 109.21875 151.992188 123.136719 149.558594 C 128.496094 148.621094 133.097656 146.308594 137.050781 142.558594 C 140.800781 139.011719 143.4375 134.558594 144.757812 129.636719 C 145.695312 126.210938 145.695312 120.058594 144.757812 116.601562 C 143.996094 113.789062 142.324219 110.007812 140.890625 107.929688 C 137.257812 102.625 131.222656 98.464844 125.039062 96.972656 C 122.199219 96.296875 117.480469 96.003906 115.078125 96.386719 Z M 131.484375 114.636719 L 134.472656 117.625 L 124.132812 127.96875 L 113.820312 138.28125 L 101.222656 125.683594 L 104.296875 122.605469 L 107.375 119.53125 L 110.449219 122.605469 C 112.148438 124.304688 113.671875 125.683594 113.820312 125.683594 C 113.996094 125.683594 117.277344 122.519531 121.144531 118.652344 C 125.011719 114.785156 128.234375 111.621094 128.320312 111.621094 C 128.410156 111.621094 129.816406 112.96875 131.484375 114.636719 Z M 131.484375 114.636719 "/>
</g>
</svg>
