<?xml version="1.0" standalone="no"?>
<!DOCTYPE svg PUBLIC "-//W3C//DTD SVG 20010904//EN"
 "http://www.w3.org/TR/2001/REC-SVG-20010904/DTD/svg10.dtd">
<svg version="1.0" xmlns="http://www.w3.org/2000/svg"
 width="50.000000pt" height="50.000000pt" viewBox="0 0 50.000000 50.000000"
 preserveAspectRatio="xMidYMid meet">

<g transform="translate(0.000000,50.000000) scale(0.100000,-0.100000)"
fill="#000000" stroke="none">
<path d="M40 390 l0 -70 70 0 70 0 0 70 0 70 -70 0 -70 0 0 -70z m120 0 l0
-50 -50 0 -50 0 0 50 0 50 50 0 50 0 0 -50z"/>
<path d="M80 390 c0 -27 3 -30 30 -30 27 0 30 3 30 30 0 27 -3 30 -30 30 -27
0 -30 -3 -30 -30z m40 0 c0 -5 -4 -10 -10 -10 -5 0 -10 5 -10 10 0 6 5 10 10
10 6 0 10 -4 10 -10z"/>
<path d="M320 390 l0 -70 70 0 70 0 0 70 0 70 -70 0 -70 0 0 -70z m120 0 l0
-50 -50 0 -50 0 0 50 0 50 50 0 50 0 0 -50z"/>
<path d="M360 390 c0 -27 3 -30 30 -30 27 0 30 3 30 30 0 27 -3 30 -30 30 -27
0 -30 -3 -30 -30z m40 0 c0 -5 -4 -10 -10 -10 -5 0 -10 5 -10 10 0 6 5 10 10
10 6 0 10 -4 10 -10z"/>
<path d="M200 410 c0 -23 4 -30 20 -30 11 0 20 -7 20 -15 0 -8 -9 -15 -20 -15
-15 0 -20 -7 -20 -25 0 -23 -4 -25 -45 -25 -38 0 -45 -3 -45 -20 0 -13 -7 -20
-20 -20 -16 0 -20 -7 -20 -30 0 -27 3 -30 30 -30 23 0 30 4 30 20 0 11 7 20
15 20 8 0 15 -9 15 -20 0 -16 7 -20 30 -20 28 0 30 2 30 40 0 22 5 40 10 40 6
0 10 -9 10 -20 0 -16 7 -20 35 -20 24 0 35 -5 35 -15 0 -9 9 -15 25 -15 16 0
25 -6 25 -15 0 -11 -11 -15 -40 -15 -33 0 -40 -3 -40 -20 0 -13 -7 -20 -20
-20 -16 0 -20 -7 -20 -30 0 -27 3 -30 30 -30 23 0 30 4 30 20 0 16 7 20 30 20
28 0 30 -2 30 -40 l0 -40 50 0 50 0 0 50 0 50 -40 0 c-22 0 -40 5 -40 10 0 6
18 10 40 10 l40 0 0 50 c0 49 -1 50 -30 50 -20 0 -30 -5 -30 -15 0 -8 -4 -15
-10 -15 -5 0 -10 16 -10 35 l0 35 -60 0 c-47 0 -60 3 -60 15 0 8 9 15 20 15
16 0 20 7 20 35 0 28 -4 35 -20 35 -13 0 -20 7 -20 20 0 16 -7 20 -30 20 -27
0 -30 -3 -30 -30z m40 0 c0 -5 -4 -10 -10 -10 -5 0 -10 5 -10 10 0 6 5 10 10
10 6 0 10 -4 10 -10z m40 -45 c0 -8 -4 -15 -10 -15 -5 0 -10 7 -10 15 0 8 5
15 10 15 6 0 10 -7 10 -15z m-40 -50 c0 -8 -4 -15 -10 -15 -5 0 -10 7 -10 15
0 8 5 15 10 15 6 0 10 -7 10 -15z m-40 -65 c0 -16 -4 -30 -10 -30 -5 0 -10 9
-10 20 0 15 -7 20 -25 20 -14 0 -25 5 -25 10 0 6 16 10 35 10 32 0 35 -2 35
-30z m160 5 c0 -16 -6 -25 -15 -25 -8 0 -15 7 -15 15 0 10 -11 15 -35 15 -19
0 -35 5 -35 10 0 6 23 10 50 10 47 0 50 -2 50 -25z m-250 -25 c0 -5 -4 -10
-10 -10 -5 0 -10 5 -10 10 0 6 5 10 10 10 6 0 10 -4 10 -10z m330 -20 c0 -27
-3 -30 -30 -30 -20 0 -30 5 -30 15 0 8 9 15 20 15 11 0 20 7 20 15 0 8 5 15
10 15 6 0 10 -13 10 -30z m-80 -60 c0 -5 -13 -10 -30 -10 -16 0 -30 5 -30 10
0 6 14 10 30 10 17 0 30 -4 30 -10z m-80 -40 c0 -5 -4 -10 -10 -10 -5 0 -10 5
-10 10 0 6 5 10 10 10 6 0 10 -4 10 -10z m160 -20 c0 -27 -3 -30 -30 -30 -27
0 -30 3 -30 30 0 27 3 30 30 30 27 0 30 -3 30 -30z"/>
<path d="M40 110 l0 -70 70 0 70 0 0 70 0 70 -70 0 -70 0 0 -70z m120 0 l0
-50 -50 0 -50 0 0 50 0 50 50 0 50 0 0 -50z"/>
<path d="M80 110 c0 -27 3 -30 30 -30 27 0 30 3 30 30 0 27 -3 30 -30 30 -27
0 -30 -3 -30 -30z m40 0 c0 -5 -4 -10 -10 -10 -5 0 -10 5 -10 10 0 6 5 10 10
10 6 0 10 -4 10 -10z"/>
</g>
</svg>
