<?xml version="1.0" standalone="no"?>
<!DOCTYPE svg PUBLIC "-//W3C//DTD SVG 20010904//EN"
 "http://www.w3.org/TR/2001/REC-SVG-20010904/DTD/svg10.dtd">
<svg version="1.0" xmlns="http://www.w3.org/2000/svg"
 width="50.000000pt" height="50.000000pt" viewBox="0 0 50.000000 50.000000"
 preserveAspectRatio="xMidYMid meet">

<g transform="translate(0.000000,50.000000) scale(0.100000,-0.100000)"
fill="#000000" stroke="none">
<path d="M155 456 c-60 -28 -87 -56 -114 -116 -36 -79 -19 -183 42 -249 33
-36 115 -71 167 -71 49 0 122 29 158 62 l22 21 0 -41 c0 -23 5 -42 10 -42 6 0
10 27 10 60 l0 60 -60 0 c-33 0 -60 -4 -60 -10 0 -5 19 -10 43 -10 l42 -1 -32
-29 c-100 -90 -265 -52 -324 75 -63 135 42 296 193 295 107 -1 208 -99 208
-202 0 -10 5 -18 10 -18 32 0 -15 134 -61 177 -37 34 -110 63 -159 63 -27 0
-65 -10 -95 -24z"/>
<path d="M240 350 c0 -33 -5 -69 -12 -79 -6 -10 -8 -26 -5 -35 7 -18 42 -22
52 -6 3 6 26 10 51 10 24 0 44 5 44 10 0 6 -19 10 -43 10 -24 0 -48 5 -55 12
-7 7 -12 39 -12 75 0 35 -4 63 -10 63 -6 0 -10 -27 -10 -60z"/>
</g>
</svg>
